<svg width="754" height="855"><defs id="SvgjsDefs1287"><linearGradient id="SvgjsLinearGradient1292"><stop id="SvgjsStop1293" stop-color="#b88746" offset="0"></stop><stop id="SvgjsStop1294" stop-color="#fdf5a6" offset="1"></stop></linearGradient></defs><g id="SvgjsG1288" transform="translate(0.000007311831723200157, 0.004173785448074341) scale(15.202013089177376)" feature="container" rel="inversefill" name="filled_container" xmlns:name="filledContainer_inversefill" fill="#000000">   <title xmlns="http://www.w3.org/2000/svg">Untitled-1</title>   <path xmlns="http://www.w3.org/2000/svg" d="M23.11,55.78L1.69,43.41A3.39,3.39,0,0,1,0,40.48V15.75a3.39,3.39,0,0,1,1.69-2.94L23.11,0.45a3.39,3.39,0,0,1,3.39,0L47.91,12.82a3.39,3.39,0,0,1,1.69,2.94V40.48a3.39,3.39,0,0,1-1.69,2.94L26.5,55.78A3.39,3.39,0,0,1,23.11,55.78Z"></path> </g><g id="main_text" rel="mainfill" name="main_text" feature="main_text" xmlns:name="mainText_mainfill" groupname="main_text" fill="#ffffff" transform="translate(208.16054281905787, 424.4979975876587) scale(5.8154351653856)"><path d="M9.36 24 l-4.58 -7.14 q0.86 0 1.58 -0.21 t1.25 -0.65 t0.82 -1.12 t0.29 -1.62 q0 -0.86 -0.31 -1.52 t-0.83 -1.11 t-1.24 -0.68 t-1.52 -0.23 l-3.3 0 l0 14.28 l0.8 0 l0 -7.14 l1.54 0 l4.54 7.14 l0.96 0 z M7.88 13.24 q0 1.36 -0.79 2.08 t-2.07 0.72 l-2.7 0 l0 -5.5 l2.48 0 q0.64 0 1.2 0.17 t0.98 0.5 t0.66 0.84 t0.24 1.19 z M18.759999999999998 24 l0 -8.26 l-0.82 0 l0 1.44 q-1.32 -1.56 -3.3 -1.56 q-1.8 0 -3.04 1.24 q-1.22 1.22 -1.22 3.02 t1.24 3.04 q1.22 1.22 3.02 1.22 q2 0 3.3 -1.56 l0 1.42 l0.82 0 z M18.1 19.88 q0 1.44 -1.02 2.46 q-1 1 -2.44 1 q-1.42 0 -2.44 -1.02 t-1.02 -2.44 q0 -1.44 1.02 -2.46 q1 -1 2.44 -1 q1.42 0 2.44 1.02 t1.02 2.44 z M26.900000000000002 11.96 l-0.44 -0.48 l-2.68 2.68 l0.48 0.46 z M27.26 20.9 l0 -5.16 l-0.8 0 l0 5.16 q0 2.46 -2.3 2.46 q-1.18 0 -1.72 -0.64 q-0.52 -0.64 -0.52 -1.82 l0 -5.16 l-0.82 0 l0 5.16 q0 1.54 0.8 2.4 t2.26 0.86 q1.48 0 2.3 -0.88 q0.8 -0.86 0.8 -2.38 z M30.8 24 l0 -14.8 l-0.8 0 l0 14.8 l0.8 0 z M48 17.1 l-5.62 0 l0 0.82 l4.72 0 q-0.2 1.92 -1.6 3.44 q-1.84 2.02 -4.86 2.02 q-2.82 0 -4.7 -1.84 q-1.84 -1.84 -1.84 -4.68 q0 -2.82 1.86 -4.68 t4.68 -1.86 q3.46 0 5.38 2.64 l0.66 -0.5 q-2.2 -2.94 -6.04 -2.94 q-3.2 0 -5.28 2.08 q-2.06 2.06 -2.06 5.26 q0 3.24 2.06 5.3 q2.04 2.04 5.28 2.04 q3.4 0 5.46 -2.18 q1.9 -2 1.9 -4.92 z M56.459999999999994 16.56 l0 -0.82 l-5.4 0 l0 -5.2 l5.4 0 l0 -0.82 l-6.2 0 l0 14.28 l0.8 0 l0 -7.44 l5.4 0 z"></path></g><g id="slogan_text" rel="mainfill" name="slogan_text" feature="slogan_text" xmlns:name="sloganText_mainfill" groupname="slogan_text" fill="#ffffff" transform="translate(294.2996157439943, 558.5173281548897) scale(2.2183675971975116)"><path d="M3.7895 22.8421 q1.642105263 0 3.021052632 -0.8 t2.1789 -2.1895 t0.8 -3.0105 q0 -1.221052632 -0.4842105263 -2.347368421 t-1.2632 -1.9053 t-1.9053 -1.2632 t-2.3474 -0.48421 l-0.58947 0 l0 12 l0.58947 0 z M1.0105 9.684 l2.7789 0 q1.515789474 0 2.810526316 0.5578947368 t2.2632 1.5263 t1.5263 2.2632 t0.55789 2.8105 q0 1.936842105 -0.9578947368 3.589473684 t-2.6105 2.6105 t-3.5895 0.95789 l-1.7474 0 l0 -13.158 l-1.7263 0 z M19.11575789473684 21.2842 l1.0105 0.56842 q-0.5684210526 1.073684211 -1.642105263 1.736842105 t-2.3579 0.66316 q-1.852631579 0 -3.2 -1.347368421 t-1.3474 -3.2 q0 -1.894736842 1.347368421 -3.221052632 t3.2 -1.3263 q1.178947368 0 2.221052632 0.5894736842 t1.6105 1.4947 l-5.8737 5.1789 q0.8842105263 0.6736842105 2.042105263 0.6736842105 q0.9684210526 0 1.757894737 -0.4842105263 t1.2316 -1.3263 z M13.305257894736842 21.6 l5.0316 -4.4632 q-0.9473684211 -0.8210526316 -2.210526316 -0.8210526316 q-1.431578947 0 -2.410526316 0.9789473684 t-0.97895 2.4105 q0 1.031578947 0.5684210526 1.894736842 z M26.77895789473684 15.3895 l1.2632 0 l-3.7895 8.8842 l-3.7895 -8.8842 l1.2632 0 l2.5263 5.8947 z M35.894705263157896 21.2842 l1.0105 0.56842 q-0.5684210526 1.073684211 -1.642105263 1.736842105 t-2.3579 0.66316 q-1.852631579 0 -3.2 -1.347368421 t-1.3474 -3.2 q0 -1.894736842 1.347368421 -3.221052632 t3.2 -1.3263 q1.178947368 0 2.221052632 0.5894736842 t1.6105 1.4947 l-5.8737 5.1789 q0.8842105263 0.6736842105 2.042105263 0.6736842105 q0.9684210526 0 1.757894737 -0.4842105263 t1.2316 -1.3263 z M30.084205263157894 21.6 l5.0316 -4.4632 q-0.9473684211 -0.8210526316 -2.210526316 -0.8210526316 q-1.431578947 0 -2.410526316 0.9789473684 t-0.97895 2.4105 q0 1.031578947 0.5684210526 1.894736842 z M37.873685263157896 24 l0 -14.316 l1.1579 0 l0 14.316 l-1.1579 0 z M44.52635789473684 15.1579 q1.894736842 0 3.221052632 1.326315789 t1.3263 3.2211 q0 1.852631579 -1.326315789 3.2 t-3.2211 1.3474 q-1.852631579 0 -3.2 -1.347368421 t-1.3474 -3.2 q0 -1.894736842 1.347368421 -3.221052632 t3.2 -1.3263 z M44.52635789473684 16.3158 q-1.431578947 0 -2.410526316 0.9789473684 t-0.97895 2.4105 t0.97895 2.4105 t2.4105 0.97895 q1.410526316 0 2.4 -0.9894736842 t0.98947 -2.4 t-0.98947 -2.4 t-2.4 -0.98947 z M54.56837368421053 24.25263 q-2.021052632 0 -3.389473684 -1.515789474 l0 6.9895 l-1.1579 0 l0 -14.337 l1.2632 1.1789 q1.368421053 -1.410526316 3.284210526 -1.410526316 q1.894736842 0 3.221052632 1.326315789 t1.3263 3.2211 q0 1.852631579 -1.326315789 3.2 t-3.2211 1.3474 z M54.56837368421053 23.09474 q1.431578947 0 2.410526316 -0.9789473684 t0.97895 -2.4105 t-0.97895 -2.4105 t-2.4105 -0.97895 q-1.410526316 0 -2.4 0.9894736842 t-0.98947 2.4 t0.98947 2.4 t2.4 0.98947 z M67.28417894736842 21.2842 l1.0105 0.56842 q-0.5684210526 1.073684211 -1.642105263 1.736842105 t-2.3579 0.66316 q-1.852631579 0 -3.2 -1.347368421 t-1.3474 -3.2 q0 -1.894736842 1.347368421 -3.221052632 t3.2 -1.3263 q1.178947368 0 2.221052632 0.5894736842 t1.6105 1.4947 l-5.8737 5.1789 q0.8842105263 0.6736842105 2.042105263 0.6736842105 q0.9684210526 0 1.757894737 -0.4842105263 t1.2316 -1.3263 z M61.47367894736842 21.6 l5.0316 -4.4632 q-0.9473684211 -0.8210526316 -2.210526316 -0.8210526316 q-1.431578947 0 -2.410526316 0.9789473684 t-0.97895 2.4105 q0 1.031578947 0.5684210526 1.894736842 z M73.76837894736842 15.3684 l-0.52632 1.0316 q-0.2526315789 -0.08421052632 -0.6105263158 -0.08421052632 q-0.9684210526 0 -1.589473684 0.6526315789 t-0.62105 1.5579 l0 5.4737 l-1.1579 0 l0 -8.6105 l0.96842 0.77895 q0.9684210526 -1.010526316 2.4 -1.010526316 q0.6315789474 0 1.136842105 0.2105263158 z"></path></g><g id="SvgjsG1291" rel="mainfill" name="symbol" feature="symbol" xmlns:name="symbol_mainfill" fill="url(#SvgjsLinearGradient1292)" transform="translate(263.86838944669296, 236.03839167387653) scale(3.465768687393598)"><path d="M31.484,40.647C31.484,40.647,31.484,40.647,31.484,40.647c0.703,0,1.421-0.059,2.134-0.175  c0.285-0.046,0.519-0.252,0.6-0.529s-0.004-0.577-0.22-0.77c-5.072-4.542-8.389-8.233-4.853-14.4  c0.166-0.289,0.122-0.651-0.108-0.892c-0.23-0.24-0.59-0.3-0.886-0.148c-4.88,2.519-6.907,6.008-6.025,10.37  C22.917,38.018,26.678,40.647,31.484,40.647z M26.777,26.314c-2.019,5.685,1.464,9.618,4.952,12.83  c-0.082,0.002-0.164,0.003-0.245,0.003h0c-4.072,0-7.242-2.146-7.888-5.341C22.977,30.743,23.992,28.321,26.777,26.314z"></path><path d="M31.314,47.254c3.831,0,7.619-1.454,11.259-4.323c3.4-2.677,5.112-6.488,4.699-10.458c-0.44-4.23-3.169-7.881-7.485-10.018  c-0.263-0.129-0.576-0.094-0.806,0.09c-0.228,0.185-0.327,0.485-0.254,0.77c0.879,3.416,1.233,6.488-3.11,9.244  c-0.049-0.713-0.106-1.392-0.162-2.044c-0.175-2.058-0.327-3.835-0.079-5.504c0.205-1.388,0.748-2.725,1.321-4.142  c0.439-1.083,0.895-2.205,1.192-3.366c1.843-7.174-0.111-11.271-7.211-15.116c-0.31-0.167-0.696-0.096-0.926,0.171  c-0.23,0.268-0.242,0.66-0.029,0.941c3.792,5.01,1.438,7.945-1.289,11.342c-0.222,0.276-0.444,0.554-0.664,0.833l-0.085,0.108  c-3.638,4.624-7.4,9.405-10.476,14.509c-2.269,3.762-1.541,8.048,1.947,11.465C22.825,45.353,27.028,47.254,31.314,47.254z   M18.495,31.065c3.027-5.024,6.76-9.769,10.37-14.356l0.085-0.108c0.216-0.275,0.436-0.549,0.655-0.821  c2.293-2.857,4.843-6.036,2.913-10.513c4.306,3.027,5.326,6.388,3.919,11.863c-0.272,1.064-0.708,2.137-1.129,3.175  c-0.582,1.436-1.184,2.92-1.416,4.485c-0.272,1.842-0.114,3.7,0.069,5.852c0.085,0.999,0.176,2.062,0.229,3.214  c0.012,0.257,0.155,0.49,0.379,0.617c0.223,0.129,0.497,0.13,0.725,0.009c5.451-2.922,5.865-6.517,5.26-9.871  c3.013,1.941,4.892,4.794,5.227,8.018c0.359,3.446-1.147,6.772-4.135,9.125c-3.37,2.655-6.846,4.001-10.332,4.001  c-3.94,0-7.677-1.705-11.106-5.069C17.206,37.744,16.582,34.238,18.495,31.065z"></path><path d="M47.006,55.734c0.671-0.319,1.229-0.829,1.605-1.488c0.484-0.851,0.609-1.84,0.351-2.784  c-0.535-1.949-2.552-3.1-4.506-2.567l-11.087,3.037l-11.086-3.037c-0.317-0.087-0.644-0.131-0.971-0.131  c-1.646,0-3.099,1.109-3.534,2.698c-0.259,0.944-0.135,1.934,0.351,2.784c0.375,0.659,0.935,1.169,1.604,1.487  c-0.67,0.319-1.229,0.829-1.604,1.487c-0.485,0.852-0.61,1.84-0.351,2.784c0.259,0.945,0.87,1.732,1.721,2.218  c0.561,0.319,1.181,0.482,1.809,0.482c0.325,0,0.653-0.044,0.975-0.132l11.087-3.037l11.087,3.037  c0.317,0.087,0.645,0.131,0.971,0.131c1.646,0,3.1-1.11,3.535-2.699c0.259-0.944,0.134-1.933-0.352-2.784  C48.235,56.563,47.676,56.053,47.006,55.734z M44.853,50.342c1.153-0.317,2.348,0.364,2.662,1.517  c0.153,0.559,0.08,1.143-0.207,1.646c-0.286,0.503-0.752,0.864-1.311,1.017l-1.591,0.436l-8.197-2.246L44.853,50.342z   M21.886,61.126c-0.558,0.154-1.143,0.08-1.645-0.207c-0.503-0.286-0.864-0.752-1.017-1.311c-0.153-0.558-0.079-1.142,0.208-1.645  s0.752-0.864,1.31-1.017l1.589-0.436l8.199,2.246L21.886,61.126z M47.515,59.608c-0.308,1.125-1.523,1.83-2.662,1.518l-24.111-6.605  c-0.559-0.152-1.024-0.514-1.311-1.017c-0.286-0.503-0.36-1.087-0.207-1.646c0.257-0.938,1.116-1.595,2.088-1.595  c0.193,0,0.386,0.026,0.575,0.078l24.111,6.605c0.559,0.152,1.023,0.514,1.311,1.017C47.594,58.467,47.668,59.051,47.515,59.608z"></path></g></svg>
